#Comment line ignore any data following # character 
#Hierarchical Translation and Rotation (.htr) file 
[Header]	
#Header keywords are followed by a single value 
FileType HTR		#Single word string
DataType HTRS		#Translation followed by rotation and scale data
FileVersion 1		#integer
NumSegments 84		#integer
NumFrames 2		#integer
DataFrameRate 30		#integer, data frame rate in this file
EulerRotationOrder ZYX
CalibrationUnits mm
RotationUnits Degrees
GlobalAxisofGravity Y
BoneLengthAxis Y
ScaleFactor 1.00
[SegmentNames&Hierarchy]
#CHILD	PARENT
MASTER GLOBAL
root MASTER
chest root
L_mid_tent01 root
R_mid_tent01 root
spine01 root
Bip01_Neck chest
L_humerus chest
R_humerus chest
weapon_bone chest
Bip01_Head Bip01_Neck
eye_left_bone Bip01_Head
eye_right_bone Bip01_Head
L_forearm L_humerus
L_front_hand L_forearm
L_weapon_bone L_forearm
L_front_hand01_01 L_front_hand
L_front_hand02_01 L_front_hand
L_front_hand03_01 L_front_hand
L_front_hand01_02 L_front_hand01_01
L_front_hand02_02 L_front_hand02_01
L_front_hand03_02 L_front_hand03_01
R_forearm R_humerus
R_front_hand R_forearm
R_weapon_bone R_forearm
R_front_hand01_01 R_front_hand
R_front_hand02_01 R_front_hand
R_front_hand03_01 R_front_hand
R_front_hand01_02 R_front_hand01_01
R_front_hand02_02 R_front_hand02_01
R_front_hand03_02 R_front_hand03_01
null_rope01_connect L_mid_tent01
Rope1_Seg01 null_rope01_connect
Rope1_Seg02 Rope1_Seg01
Rope1_Seg03 Rope1_Seg02
Rope1_Seg04 Rope1_Seg03
Rope1_Seg05 Rope1_Seg04
Rope1_Seg06 Rope1_Seg05
Rope1_Seg07 Rope1_Seg06
Rope1_Seg09 Rope1_Seg07
L_mid_hand01 Rope1_Seg09
L_mid_hand02 Rope1_Seg09
L_mid_hand03 Rope1_Seg09
null_rope02_connect R_mid_tent01
Rope2_Seg01 null_rope02_connect
Rope2_Seg02 Rope2_Seg01
Rope2_Seg03 Rope2_Seg02
Rope2_Seg04 Rope2_Seg03
Rope2_Seg05 Rope2_Seg04
Rope2_Seg06 Rope2_Seg05
Rope2_Seg07 Rope2_Seg06
Rope2_Seg09 Rope2_Seg07
R_mid_hand01 Rope2_Seg09
R_mid_hand02 Rope2_Seg09
R_mid_hand03 Rope2_Seg09
spine02 spine01
spine03 spine02
pelvis spine03
null_rope03_connect pelvis
null_rope04_connect pelvis
Rope3_Seg01 null_rope03_connect
Rope3_Seg02 Rope3_Seg01
Rope3_Seg03 Rope3_Seg02
Rope3_Seg04 Rope3_Seg03
Rope3_Seg05 Rope3_Seg04
Rope3_Seg06 Rope3_Seg05
Rope3_Seg07 Rope3_Seg06
Rope3_Seg08 Rope3_Seg07
Rope3_Seg09 Rope3_Seg08
R_rear_hand01 Rope3_Seg09
R_rear_hand02 Rope3_Seg09
R_rear_hand03 Rope3_Seg09
Rope4_Seg01 null_rope04_connect
Rope4_Seg02 Rope4_Seg01
Rope4_Seg03 Rope4_Seg02
Rope4_Seg04 Rope4_Seg03
Rope4_Seg05 Rope4_Seg04
Rope4_Seg06 Rope4_Seg05
Rope4_Seg07 Rope4_Seg06
Rope4_Seg08 Rope4_Seg07
Rope4_Seg09 Rope4_Seg08
L_rear_hand01 Rope4_Seg09
L_rear_hand02 Rope4_Seg09
L_rear_hand03 Rope4_Seg09
[BasePosition]
#SegmentName Tx, Ty, Tz, Rx, Ry, Rz, BoneLength
MASTER 0.000000 0.000000 0.000000 -90.000000 0.000000 0.000000 10.000000 
root 0.000000 0.000000 0.000000 0.000000 0.000000 0.000000 10.000000 
chest 0.000000 0.000000 0.000000 0.000000 0.000000 0.000000 10.000000 
L_mid_tent01 0.000000 0.000000 0.000000 0.000000 0.000000 0.000000 10.000000 
R_mid_tent01 0.000000 0.000000 0.000000 0.000000 0.000000 0.000000 10.000000 
spine01 0.000000 0.000000 0.000000 0.000000 0.000000 0.000000 10.000000 
Bip01_Neck 0.000000 0.000000 0.000000 0.000000 0.000000 0.000000 10.000000 
L_humerus 0.000000 0.000000 0.000000 0.000000 0.000000 0.000000 10.000000 
R_humerus 0.000000 0.000000 0.000000 0.000000 0.000000 0.000000 10.000000 
weapon_bone 0.000000 0.000000 0.000000 0.000000 0.000000 0.000000 10.000000 
Bip01_Head 0.000000 0.000000 0.000000 0.000000 0.000000 0.000000 10.000000 
eye_left_bone 0.000000 0.000000 0.000000 0.000000 0.000000 0.000000 10.000000 
eye_right_bone 0.000000 0.000000 0.000000 0.000000 0.000000 0.000000 10.000000 
L_forearm 0.000000 0.000000 0.000000 0.000000 0.000000 0.000000 10.000000 
L_front_hand 0.000000 0.000000 0.000000 0.000000 0.000000 0.000000 10.000000 
L_weapon_bone 0.000000 0.000000 0.000000 0.000000 0.000000 0.000000 10.000000 
L_front_hand01_01 0.000000 0.000000 0.000000 0.000000 0.000000 0.000000 10.000000 
L_front_hand02_01 0.000000 0.000000 0.000000 0.000000 0.000000 0.000000 10.000000 
L_front_hand03_01 0.000000 0.000000 0.000000 0.000000 0.000000 0.000000 10.000000 
L_front_hand01_02 0.000000 0.000000 0.000000 0.000000 0.000000 0.000000 10.000000 
L_front_hand02_02 0.000000 0.000000 0.000000 0.000000 0.000000 0.000000 10.000000 
L_front_hand03_02 0.000000 0.000000 0.000000 0.000000 0.000000 0.000000 10.000000 
R_forearm 0.000000 0.000000 0.000000 0.000000 0.000000 0.000000 10.000000 
R_front_hand 0.000000 0.000000 0.000000 0.000000 0.000000 0.000000 10.000000 
R_weapon_bone 0.000000 0.000000 0.000000 0.000000 0.000000 0.000000 10.000000 
R_front_hand01_01 0.000000 0.000000 0.000000 0.000000 0.000000 0.000000 10.000000 
R_front_hand02_01 0.000000 0.000000 0.000000 0.000000 0.000000 0.000000 10.000000 
R_front_hand03_01 0.000000 0.000000 0.000000 0.000000 0.000000 0.000000 10.000000 
R_front_hand01_02 0.000000 0.000000 0.000000 0.000000 0.000000 0.000000 10.000000 
R_front_hand02_02 0.000000 0.000000 0.000000 0.000000 0.000000 0.000000 10.000000 
R_front_hand03_02 0.000000 0.000000 0.000000 0.000000 0.000000 0.000000 10.000000 
null_rope01_connect 0.000000 0.000000 0.000000 0.000000 0.000000 0.000000 10.000000 
Rope1_Seg01 0.000000 0.000000 0.000000 0.000000 0.000000 0.000000 10.000000 
Rope1_Seg02 0.000000 0.000000 0.000000 0.000000 0.000000 0.000000 10.000000 
Rope1_Seg03 0.000000 0.000000 0.000000 0.000000 0.000000 0.000000 10.000000 
Rope1_Seg04 0.000000 0.000000 0.000000 0.000000 0.000000 0.000000 10.000000 
Rope1_Seg05 0.000000 0.000000 0.000000 0.000000 0.000000 0.000000 10.000000 
Rope1_Seg06 0.000000 0.000000 0.000000 0.000000 0.000000 0.000000 10.000000 
Rope1_Seg07 0.000000 0.000000 0.000000 0.000000 0.000000 0.000000 10.000000 
Rope1_Seg09 0.000000 0.000000 0.000000 0.000000 0.000000 0.000000 10.000000 
L_mid_hand01 0.000000 0.000000 0.000000 0.000000 0.000000 0.000000 10.000000 
L_mid_hand02 0.000000 0.000000 0.000000 0.000000 0.000000 0.000000 10.000000 
L_mid_hand03 0.000000 0.000000 0.000000 0.000000 0.000000 0.000000 10.000000 
null_rope02_connect 0.000000 0.000000 0.000000 0.000000 0.000000 0.000000 10.000000 
Rope2_Seg01 0.000000 0.000000 0.000000 0.000000 0.000000 0.000000 10.000000 
Rope2_Seg02 0.000000 0.000000 0.000000 0.000000 0.000000 0.000000 10.000000 
Rope2_Seg03 0.000000 0.000000 0.000000 0.000000 0.000000 0.000000 10.000000 
Rope2_Seg04 0.000000 0.000000 0.000000 0.000000 0.000000 0.000000 10.000000 
Rope2_Seg05 0.000000 0.000000 0.000000 0.000000 0.000000 0.000000 10.000000 
Rope2_Seg06 0.000000 0.000000 0.000000 0.000000 0.000000 0.000000 10.000000 
Rope2_Seg07 0.000000 0.000000 0.000000 0.000000 0.000000 0.000000 10.000000 
Rope2_Seg09 0.000000 0.000000 0.000000 0.000000 0.000000 0.000000 10.000000 
R_mid_hand01 0.000000 0.000000 0.000000 0.000000 0.000000 0.000000 10.000000 
R_mid_hand02 0.000000 0.000000 0.000000 0.000000 0.000000 0.000000 10.000000 
R_mid_hand03 0.000000 0.000000 0.000000 0.000000 0.000000 0.000000 10.000000 
spine02 0.000000 0.000000 0.000000 0.000000 0.000000 0.000000 10.000000 
spine03 0.000000 0.000000 0.000000 0.000000 0.000000 0.000000 10.000000 
pelvis 0.000000 0.000000 0.000000 0.000000 0.000000 0.000000 10.000000 
null_rope03_connect 0.000000 0.000000 0.000000 0.000000 0.000000 0.000000 10.000000 
null_rope04_connect 0.000000 0.000000 0.000000 0.000000 0.000000 0.000000 10.000000 
Rope3_Seg01 0.000000 0.000000 0.000000 0.000000 0.000000 0.000000 10.000000 
Rope3_Seg02 0.000000 0.000000 0.000000 0.000000 0.000000 0.000000 10.000000 
Rope3_Seg03 0.000000 0.000000 0.000000 0.000000 0.000000 0.000000 10.000000 
Rope3_Seg04 0.000000 0.000000 0.000000 0.000000 0.000000 0.000000 10.000000 
Rope3_Seg05 0.000000 0.000000 0.000000 0.000000 0.000000 0.000000 10.000000 
Rope3_Seg06 0.000000 0.000000 0.000000 0.000000 0.000000 0.000000 10.000000 
Rope3_Seg07 0.000000 0.000000 0.000000 0.000000 0.000000 0.000000 10.000000 
Rope3_Seg08 0.000000 0.000000 0.000000 0.000000 0.000000 0.000000 10.000000 
Rope3_Seg09 0.000000 0.000000 0.000000 0.000000 0.000000 0.000000 10.000000 
R_rear_hand01 0.000000 0.000000 0.000000 0.000000 0.000000 0.000000 10.000000 
R_rear_hand02 0.000000 0.000000 0.000000 0.000000 0.000000 0.000000 10.000000 
R_rear_hand03 0.000000 0.000000 0.000000 0.000000 0.000000 0.000000 10.000000 
Rope4_Seg01 0.000000 0.000000 0.000000 0.000000 0.000000 0.000000 10.000000 
Rope4_Seg02 0.000000 0.000000 0.000000 0.000000 0.000000 0.000000 10.000000 
Rope4_Seg03 0.000000 0.000000 0.000000 0.000000 0.000000 0.000000 10.000000 
Rope4_Seg04 0.000000 0.000000 0.000000 0.000000 0.000000 0.000000 10.000000 
Rope4_Seg05 0.000000 0.000000 0.000000 0.000000 0.000000 0.000000 10.000000 
Rope4_Seg06 0.000000 0.000000 0.000000 0.000000 0.000000 0.000000 10.000000 
Rope4_Seg07 0.000000 0.000000 0.000000 0.000000 0.000000 0.000000 10.000000 
Rope4_Seg08 0.000000 0.000000 0.000000 0.000000 0.000000 0.000000 10.000000 
Rope4_Seg09 0.000000 0.000000 0.000000 0.000000 0.000000 0.000000 10.000000 
L_rear_hand01 0.000000 0.000000 0.000000 0.000000 0.000000 0.000000 10.000000 
L_rear_hand02 0.000000 0.000000 0.000000 0.000000 0.000000 0.000000 10.000000 
L_rear_hand03 0.000000 0.000000 0.000000 0.000000 0.000000 0.000000 10.000000 
#Beginning of Data. Separated by tabs
#Fr	Tx	Ty	Tz	Rx	Ry	Rz	SF
[MASTER]
7 2038.454712 0.000308 0.000000 0.001773 0.001538 8.129292 2038.454712
8 2448.687256 0.000370 0.000000 0.001790 0.001518 9.394146 2448.687256
[root]
7 -34.739532 -62.822132 857.233276 -71.991074 -35.433395 -106.084656 860.233887
8 -43.883057 -62.851063 857.525085 -72.762665 -37.256680 -105.714943 860.944458
[chest]
7 -84.512650 -34.090519 0.000000 -9.229501 30.381584 -179.495132 91.129311
8 -84.512650 -34.090519 0.000000 -5.776023 29.549751 -177.531219 91.129311
[L_mid_tent01]
7 27.299528 22.177504 -249.917999 -0.488819 -3.908242 45.037018 252.380890
8 27.299541 22.177504 -249.918015 0.086555 -2.409691 43.127838 252.380905
[R_mid_tent01]
7 23.228794 24.509907 226.238495 174.719391 -11.460793 79.940102 228.744751
8 23.228794 24.509907 226.238495 172.895660 -9.791821 81.211731 228.744751
[spine01]
7 -0.361383 -0.195265 0.000000 0.639882 0.447504 14.417996 0.410763
8 -0.361383 -0.195265 0.000000 0.582026 0.444135 14.211681 0.410763
[Bip01_Neck]
7 165.484543 71.581718 0.000119 175.896118 1.177290 24.871183 180.302734
8 165.484543 71.581718 0.000119 175.896118 1.177290 24.871183 180.302734
[L_humerus]
7 -13.983130 -135.272980 -120.471481 -162.146164 81.294006 -76.881493 181.680161
8 -13.983130 -135.272980 -120.471481 -163.557251 81.351143 -78.038910 181.680161
[R_humerus]
7 -13.983309 -135.273102 125.287651 -171.412048 -69.495621 -93.820251 184.909012
8 -13.983309 -135.273102 125.287651 -170.755402 -69.481644 -94.233200 184.909012
[weapon_bone]
7 235.964890 -300.705902 0.000000 0.000000 -89.951546 -128.212341 382.234833
8 235.964890 -300.705902 0.000000 0.000000 -89.951546 -128.212341 382.234833
[Bip01_Head]
7 256.524414 116.249466 -29.074707 1.300082 5.667500 -65.903854 283.132568
8 256.320038 113.915749 -27.444611 1.195887 5.511016 -66.881660 281.833221
[eye_left_bone]
7 -24.626970 125.451866 -64.772606 0.000000 -90.000000 -99.840431 143.318359
8 -24.626970 125.451866 -64.772606 0.000000 -90.000000 -99.840431 143.318359
[eye_right_bone]
7 -24.626970 125.451866 64.327362 0.000000 -89.972023 80.159386 143.117676
8 -24.626970 125.451866 64.327362 0.000000 -89.972023 80.159393 143.117676
[L_forearm]
7 322.776093 0.000000 -0.000119 0.000524 0.002288 -64.183403 322.776093
8 322.776093 0.000000 -0.000119 0.000492 0.002295 -65.819496 322.776093
[L_front_hand]
7 241.149185 -0.042021 -3.300071 -179.549637 -2.221653 -2.896225 241.171753
8 241.149185 -0.042021 -3.300071 -179.440704 -2.197170 -5.744631 241.171753
[L_weapon_bone]
7 156.183838 0.000000 0.000000 0.002126 0.000995 39.830204 156.183838
8 156.183838 0.000000 0.000000 0.002121 0.001005 39.320347 156.183838
[L_front_hand01_01]
7 86.095154 20.947098 -0.655860 0.405585 -0.442306 -4.620490 88.609184
8 86.095154 20.947098 -0.655860 0.405585 -0.442306 -4.620490 88.609184
[L_front_hand02_01]
7 86.935165 -11.437475 24.513514 116.959450 3.630817 1.495453 91.046425
8 86.935165 -11.437475 24.513514 116.959450 3.630817 1.495453 91.046425
[L_front_hand03_01]
7 86.637497 -14.123976 -20.424902 -118.420097 -4.656303 -0.152527 90.126129
8 86.637497 -14.123976 -20.424902 -118.420097 -4.656303 -0.152527 90.126129
[L_front_hand01_02]
7 71.020905 -0.000179 0.000030 0.001534 0.001777 -8.378850 71.020905
8 71.020905 -0.000179 0.000030 0.001534 0.001777 -8.378850 71.020905
[L_front_hand02_02]
7 71.020927 -0.000119 0.000060 0.001534 0.001777 -8.378850 71.020927
8 71.020927 -0.000119 0.000060 0.001534 0.001777 -8.378850 71.020927
[L_front_hand03_02]
7 71.020905 -0.000060 0.000060 0.001534 0.001777 -8.378850 71.020905
8 71.020905 -0.000060 0.000060 0.001534 0.001777 -8.378850 71.020905
[R_forearm]
7 322.776428 -0.000060 0.000030 0.200685 -0.072952 -71.430809 322.776428
8 322.776428 -0.000060 0.000030 0.200494 -0.073474 -71.132614 322.776428
[R_front_hand]
7 238.847015 -0.006795 2.210259 -0.301543 1.701446 1.233768 238.857239
8 238.847015 -0.006795 2.210259 -0.593369 1.621761 -8.776319 238.857239
[R_weapon_bone]
7 155.664093 0.002503 -0.000030 0.002809 0.002379 -134.121277 155.664078
8 155.664093 0.002503 -0.000030 0.002763 0.002431 -136.287735 155.664078
[R_front_hand01_01]
7 87.624611 14.231146 22.918642 -116.960213 3.496675 -1.324139 91.683487
8 87.624611 14.231146 22.918642 -116.960213 3.496675 -1.324139 91.683487
[R_front_hand02_01]
7 89.356956 14.367283 -19.491137 118.419647 -4.257089 0.609827 92.579636
8 89.356956 14.367283 -19.491137 118.419647 -4.257089 0.609827 92.579636
[R_front_hand03_01]
7 87.286232 -22.307278 -0.143439 -0.387970 -0.231462 4.232001 90.091743
8 87.286232 -22.307278 -0.143439 -0.387970 -0.231462 4.232000 90.091743
[R_front_hand01_02]
7 71.020905 0.000060 0.000119 0.001777 0.001534 8.377220 71.020905
8 71.020905 0.000060 0.000119 0.001777 0.001534 8.377220 71.020905
[R_front_hand02_02]
7 71.020844 -0.000030 -0.000119 0.001777 0.001534 8.377220 71.020836
8 71.020844 -0.000030 -0.000119 0.001777 0.001534 8.377220 71.020836
[R_front_hand03_02]
7 71.020905 0.000000 0.000030 0.001777 0.001534 8.377220 71.020905
8 71.020905 0.000000 0.000030 0.001777 0.001534 8.377220 71.020905
[null_rope01_connect]
7 328.732483 0.000000 -0.000238 24.352329 -73.903297 57.587353 328.732483
8 328.732483 0.000000 -0.000238 25.505054 -74.552803 59.653984 328.732483
[Rope1_Seg01]
7 0.000000 0.000000 0.000000 86.429543 7.136197 -135.184097 0.000000
8 0.000000 0.000000 0.000000 112.889702 17.663357 -137.830063 0.000000
[Rope1_Seg02]
7 139.999863 -0.000179 0.000000 13.633801 -9.836761 -0.217254 139.999863
8 139.999863 -0.000179 0.000000 4.301689 -6.620404 4.270137 139.999863
[Rope1_Seg03]
7 139.999924 0.000060 -0.000060 8.207837 -10.805305 2.416957 139.999924
8 139.999924 0.000060 -0.000060 2.379803 -7.694999 5.893069 139.999924
[Rope1_Seg04]
7 139.999924 -0.000060 -0.000119 2.483897 -11.236704 7.258477 139.999924
8 139.999924 -0.000060 -0.000119 -1.696118 -7.837097 10.369418 139.999924
[Rope1_Seg05]
7 139.999832 0.000119 -0.000060 2.621355 -8.964790 3.240386 139.999832
8 139.999832 0.000119 -0.000060 0.533411 -9.095459 7.744644 139.999832
[Rope1_Seg06]
7 139.999954 0.000119 -0.000060 4.589879 -6.778692 -4.451102 139.999954
8 139.999954 0.000119 -0.000060 5.438161 -10.077300 -3.555225 139.999954
[Rope1_Seg07]
7 139.999985 0.000060 0.000000 4.246796 -5.840163 -4.978679 139.999985
8 139.999985 0.000060 0.000000 4.353268 -8.236286 -4.327038 139.999985
[Rope1_Seg09]
7 121.602913 0.000119 -0.000089 -89.793175 -1.359789 0.847147 121.602913
8 121.602913 0.000119 -0.000089 -89.793175 -1.359789 0.847147 121.602913
[L_mid_hand01]
7 103.859421 1.038730 8.195221 107.640724 -35.120052 -10.901268 104.187431
8 103.859421 1.038730 8.195221 104.690979 -12.127199 -3.683529 104.187431
[L_mid_hand02]
7 105.572853 -4.139662 -10.864139 -143.987701 28.191181 -32.423386 106.211075
8 105.572853 -4.139662 -10.864139 -136.986465 12.817510 -12.781226 106.211075
[L_mid_hand03]
7 104.641464 17.579376 -3.913581 -15.413661 10.840238 38.196957 106.179977
8 104.641464 17.579376 -3.913581 -18.393948 3.792097 15.147139 106.179977
[null_rope02_connect]
7 328.732849 0.000179 -0.000119 -141.149323 66.406967 -9.643080 328.732849
8 328.732849 0.000179 -0.000119 -132.317993 67.880959 -1.127348 328.732849
[Rope2_Seg01]
7 -0.000067 0.000134 0.000153 -82.081711 27.669493 -18.173416 0.000214
8 -0.000066 0.000134 0.000153 -75.798424 25.596025 -16.053303 0.000213
[Rope2_Seg02]
7 139.999741 -0.000060 -0.000119 0.306149 -16.946606 6.690329 139.999756
8 139.999741 -0.000060 -0.000119 -2.551101 -15.388928 8.434900 139.999756
[Rope2_Seg03]
7 140.000107 0.000030 0.000000 0.437348 -24.427006 7.746423 140.000107
8 140.000107 0.000030 0.000000 -1.381708 -23.127729 9.857433 140.000107
[Rope2_Seg04]
7 139.999802 0.000000 -0.000060 -0.610543 -18.627155 6.419911 139.999802
8 139.999802 0.000000 -0.000060 -0.824866 -18.184965 6.974700 139.999802
[Rope2_Seg05]
7 139.999985 -0.000060 0.000119 -2.209007 -23.407328 27.628098 139.999985
8 139.999985 -0.000060 0.000119 -2.072216 -22.732477 26.593952 139.999985
[Rope2_Seg06]
7 139.999893 -0.000030 -0.000119 15.194492 -19.154964 27.502714 139.999893
8 139.999893 -0.000030 -0.000119 16.283394 -20.155014 29.470982 139.999893
[Rope2_Seg07]
7 139.999893 0.000060 -0.000060 15.358319 -3.926780 10.740114 139.999893
8 139.999893 0.000060 -0.000060 16.954134 -3.702929 11.367906 139.999893
[Rope2_Seg09]
7 121.338966 0.000089 -0.000060 33.793236 -1.359788 -0.847141 121.338966
8 121.338966 0.000089 -0.000060 33.793236 -1.359788 -0.847141 121.338966
[R_mid_hand01]
7 104.680779 11.144459 -10.335981 -40.238312 27.648584 31.465513 105.778534
8 104.680779 11.144459 -10.335981 -46.282280 11.920233 13.898090 105.778534
[R_mid_hand02]
7 104.070427 2.443552 8.231699 72.145821 -35.985065 11.253941 104.424065
8 104.070427 2.443552 8.231699 75.179291 -14.113796 4.227930 104.424065
[R_mid_hand03]
7 106.028137 -11.221827 -5.996406 -168.523941 10.951766 -40.389626 106.788818
8 106.028137 -11.221827 -5.996406 -165.232071 5.716876 -17.994635 106.788818
[spine02]
7 129.756927 0.001550 0.000119 -0.222423 -4.193738 -4.767375 129.756927
8 129.756927 0.001550 0.000119 -0.215121 -4.196348 -4.896424 129.756927
[spine03]
7 78.674896 0.076561 -4.301910 0.941749 3.197703 0.532620 78.792458
8 78.696770 0.072746 -4.088440 1.067778 2.878332 1.864073 78.802933
[pelvis]
7 169.435242 0.051022 0.000000 -169.136978 -0.203848 10.544307 169.435257
8 169.435242 0.051022 0.000000 177.849884 4.420006 12.946055 169.435257
[null_rope03_connect]
7 -1.257226 -2.466202 137.391083 -165.155426 63.188622 -91.067886 137.418976
8 -1.257226 -2.466202 137.391083 -176.945389 76.593826 -100.334969 137.418976
[null_rope04_connect]
7 -1.259640 -2.480268 -137.844437 -165.155426 63.188622 -91.067886 137.872513
8 -1.259640 -2.480268 -137.844437 -176.945389 76.593826 -100.334969 137.872513
[Rope3_Seg01]
7 0.000000 0.000000 0.000000 -131.508270 6.532533 -113.637383 0.000000
8 0.000000 0.000000 0.000000 -126.010368 1.848922 -123.026077 0.000000
[Rope3_Seg02]
7 139.999924 -0.000119 0.000060 -25.050968 1.127954 31.781584 139.999924
8 139.999924 -0.000119 0.000060 -11.596149 11.614718 28.059359 139.999924
[Rope3_Seg03]
7 139.999924 -0.000119 0.000119 -73.418686 -18.633003 35.813576 139.999924
8 139.999924 -0.000119 0.000119 -118.982101 -0.061233 32.645481 139.999924
[Rope3_Seg04]
7 139.999924 0.000119 0.000000 -37.855526 -37.164288 14.338171 139.999924
8 139.999924 0.000119 0.000000 -32.954781 -38.636696 -1.786345 139.999924
[Rope3_Seg05]
7 139.999924 -0.000238 0.000060 -4.713542 -14.606452 -2.603075 139.999924
8 139.999924 -0.000238 0.000060 -2.868393 -15.373663 -8.986665 139.999924
[Rope3_Seg06]
7 139.999893 -0.000119 -0.000060 -0.570133 -4.816046 -1.706969 139.999893
8 139.999893 -0.000119 -0.000060 -0.032434 -4.488387 -3.551365 139.999893
[Rope3_Seg07]
7 139.999771 0.000060 -0.000119 0.027534 -2.842269 -1.042895 139.999771
8 139.999771 0.000060 -0.000119 0.301636 -2.619688 -2.083090 139.999771
[Rope3_Seg08]
7 139.999985 -0.000060 0.000000 0.292192 -1.638862 -0.601012 139.999985
8 139.999985 -0.000060 0.000000 0.432712 -1.502429 -1.186164 139.999985
[Rope3_Seg09]
7 90.185997 -0.000179 -0.000060 89.793228 -1.359877 -0.847183 90.185997
8 90.185997 -0.000179 -0.000060 89.793228 -1.359877 -0.847183 90.185997
[R_rear_hand01]
7 103.366196 -6.073594 -10.757982 -166.970291 21.129854 -46.704182 104.101845
8 103.366196 -6.073594 -10.757982 -166.970291 21.129854 -46.704182 104.101845
[R_rear_hand02]
7 100.509819 12.039542 -7.992327 -28.148870 27.804201 44.102722 101.543350
8 100.509819 12.039542 -7.992327 -28.148870 27.804201 44.102722 101.543350
[R_rear_hand03]
7 101.539970 5.215704 5.435467 81.628380 -47.127724 10.016966 101.819031
8 101.539970 5.215704 5.435467 81.628380 -47.127724 10.016966 101.819031
[Rope4_Seg01]
7 -0.000017 -0.000058 -0.000153 24.483398 -20.274473 -54.327339 0.000164
8 -0.000016 -0.000055 -0.000153 33.813801 -6.654813 -54.685135 0.000163
[Rope4_Seg02]
7 139.999985 0.000060 0.000119 -14.713356 5.760085 20.961420 139.999985
8 139.999985 0.000060 0.000119 -15.555949 10.958170 18.813419 139.999985
[Rope4_Seg03]
7 139.999924 0.000000 -0.000238 -38.759205 0.757302 31.388992 139.999924
8 139.999924 0.000000 -0.000238 -58.254795 7.507811 28.814680 139.999924
[Rope4_Seg04]
7 139.999985 0.000000 0.000119 -24.888613 -11.136686 17.220512 139.999985
8 139.999985 0.000000 0.000119 -32.632381 -12.085087 14.512479 139.999985
[Rope4_Seg05]
7 139.999802 -0.000060 -0.000119 -8.786035 -13.548202 4.679257 139.999802
8 139.999802 -0.000060 -0.000119 -7.868770 -14.845659 0.758478 139.999802
[Rope4_Seg06]
7 139.999924 0.000000 0.000060 -4.824140 -22.844578 0.628476 139.999924
8 139.999924 0.000000 0.000060 -1.759520 -25.178598 -6.334532 139.999924
[Rope4_Seg07]
7 139.999802 0.000000 0.000000 -0.626155 -20.000189 -0.626155 139.999802
8 139.999802 0.000000 0.000000 0.632340 -20.820759 -5.839341 139.999802
[Rope4_Seg08]
7 139.999924 0.000000 0.000119 -0.818802 -10.201287 -0.153657 139.999924
8 139.999924 0.000000 0.000119 -0.898512 -10.028888 -2.531222 139.999924
[Rope4_Seg09]
7 90.185791 0.000060 0.000060 -135.617828 2.228885 0.850567 90.185791
8 90.185791 0.000060 0.000060 -135.617828 2.228885 0.850567 90.185791
[L_rear_hand01]
7 101.696655 -8.392275 -7.654577 -27.705481 -28.251705 134.947800 102.329041
8 101.696655 -8.392275 -7.654577 -27.705481 -28.251705 134.947800 102.329041
[L_rear_hand02]
7 102.726799 -1.568258 5.773216 81.477219 48.065086 169.775513 102.900848
8 102.726799 -1.568258 5.773216 81.477219 48.065086 169.775513 102.900848
[L_rear_hand03]
7 104.552910 9.721220 -10.420293 -167.330078 -21.338425 -132.303940 105.519653
8 104.552910 9.721220 -10.420293 -167.330078 -21.338425 -132.303940 105.519653
